<svg xmlns="http://www.w3.org/2000/svg" width="62" height="62"><defs><linearGradient id="prefix__qq_music" x1="49.93%" x2="49.93%" y1="-.01%" y2="100.023%"><stop offset="0%" stop-color="#00CBCB"/><stop offset="16.17%" stop-color="#0FC8B2"/><stop offset="44.97%" stop-color="#28C48B"/><stop offset="60%" stop-color="#31C27C"/><stop offset="70%" stop-color="#21C077"/><stop offset="88.57%" stop-color="#09BD71"/><stop offset="100%" stop-color="#00BC6E"/></linearGradient></defs><g fill="none"><path fill="#FFDC00" d="M48.566 6.48L47.59.157l-3.412 3.677A30.524 30.524 0 0030.62.678C13.71.678 0 14.37 0 31.258c0 16.89 13.71 30.58 30.62 30.58s30.62-13.69 30.62-30.58c0-10.193-4.996-19.22-12.674-24.777"/><path fill="url(#prefix__qq_music)" d="M4.252 7.141a1.581 1.581 0 00-1.379 2.376l2.553 4.403 12.507 21.573a16.201 16.201 0 00-4.753-.28C5.516 35.883-.237 41.68.331 48.16.9 54.64 7.573 59.35 15.237 58.68c7.664-.67 13.417-6.467 12.848-12.947-.151-1.731-.738-3.145-1.669-4.745l-12.65-21.752C20.14 15.916 27.825 9.023 30.885 0c-7.898 5.778-17.88 7.208-26.634 7.141" transform="translate(17)"/></g></svg>